<svg class="main-svg" xmlns="http://www.w3.org/2000/svg" xmlns:xlink="http://www.w3.org/1999/xlink" width="700" height="500" style="" viewBox="0 0 700 500"><rect x="0" y="0" width="700" height="500" style="fill: rgb(255, 255, 255); fill-opacity: 1;"/><defs id="defs-9d5698"><g class="clips"><clipPath id="clip9d5698xyplot" class="plotclip"><rect width="540" height="292"/></clipPath><clipPath class="axesclip" id="clip9d5698x"><rect x="80" y="0" width="540" height="500"/></clipPath><clipPath class="axesclip" id="clip9d5698y"><rect x="0" y="100" width="700" height="292"/></clipPath><clipPath class="axesclip" id="clip9d5698xy"><rect x="80" y="100" width="540" height="292"/></clipPath></g><g class="gradients"/><g class="patterns"/></defs><g class="bglayer"><rect class="bg" x="80" y="100" width="540" height="292" style="fill: rgb(229, 236, 246); fill-opacity: 1; stroke-width: 0;"/></g><g class="layer-below"><g class="imagelayer"/><g class="shapelayer"/></g><g class="cartesianlayer"><g class="subplot xy"><g class="layer-subplot"><g class="shapelayer"/><g class="imagelayer"/></g><g class="minor-gridlayer"><g class="x"/><g class="y"/></g><g class="gridlayer"><g class="x"><path class="xgrid crisp" transform="translate(94.21000000000001,0)" d="M0,100v292" style="stroke: rgb(255, 255, 255); stroke-opacity: 1; stroke-width: 1px;"/><path class="xgrid crisp" transform="translate(108.42,0)" d="M0,100v292" style="stroke: rgb(255, 255, 255); stroke-opacity: 1; stroke-width: 1px;"/><path class="xgrid crisp" transform="translate(122.63,0)" d="M0,100v292" style="stroke: rgb(255, 255, 255); stroke-opacity: 1; stroke-width: 1px;"/><path class="xgrid crisp" transform="translate(136.84,0)" d="M0,100v292" style="stroke: rgb(255, 255, 255); stroke-opacity: 1; stroke-width: 1px;"/><path class="xgrid crisp" transform="translate(151.05,0)" d="M0,100v292" style="stroke: rgb(255, 255, 255); stroke-opacity: 1; stroke-width: 1px;"/><path class="xgrid crisp" transform="translate(165.26,0)" d="M0,100v292" style="stroke: rgb(255, 255, 255); stroke-opacity: 1; stroke-width: 1px;"/><path class="xgrid crisp" transform="translate(179.47,0)" d="M0,100v292" style="stroke: rgb(255, 255, 255); stroke-opacity: 1; stroke-width: 1px;"/><path class="xgrid crisp" transform="translate(193.68,0)" d="M0,100v292" style="stroke: rgb(255, 255, 255); stroke-opacity: 1; stroke-width: 1px;"/><path class="xgrid crisp" transform="translate(207.89,0)" d="M0,100v292" style="stroke: rgb(255, 255, 255); stroke-opacity: 1; stroke-width: 1px;"/><path class="xgrid crisp" transform="translate(222.11,0)" d="M0,100v292" style="stroke: rgb(255, 255, 255); stroke-opacity: 1; stroke-width: 1px;"/><path class="xgrid crisp" transform="translate(236.32,0)" d="M0,100v292" style="stroke: rgb(255, 255, 255); stroke-opacity: 1; stroke-width: 1px;"/><path class="xgrid crisp" transform="translate(250.53,0)" d="M0,100v292" style="stroke: rgb(255, 255, 255); stroke-opacity: 1; stroke-width: 1px;"/><path class="xgrid crisp" transform="translate(264.74,0)" d="M0,100v292" style="stroke: rgb(255, 255, 255); stroke-opacity: 1; stroke-width: 1px;"/><path class="xgrid crisp" transform="translate(278.95,0)" d="M0,100v292" style="stroke: rgb(255, 255, 255); stroke-opacity: 1; stroke-width: 1px;"/><path class="xgrid crisp" transform="translate(293.15999999999997,0)" d="M0,100v292" style="stroke: rgb(255, 255, 255); stroke-opacity: 1; stroke-width: 1px;"/><path class="xgrid crisp" transform="translate(307.37,0)" d="M0,100v292" style="stroke: rgb(255, 255, 255); stroke-opacity: 1; stroke-width: 1px;"/><path class="xgrid crisp" transform="translate(321.58000000000004,0)" d="M0,100v292" style="stroke: rgb(255, 255, 255); stroke-opacity: 1; stroke-width: 1px;"/><path class="xgrid crisp" transform="translate(335.78999999999996,0)" d="M0,100v292" style="stroke: rgb(255, 255, 255); stroke-opacity: 1; stroke-width: 1px;"/><path class="xgrid crisp" transform="translate(350,0)" d="M0,100v292" style="stroke: rgb(255, 255, 255); stroke-opacity: 1; stroke-width: 1px;"/><path class="xgrid crisp" transform="translate(364.21,0)" d="M0,100v292" style="stroke: rgb(255, 255, 255); stroke-opacity: 1; stroke-width: 1px;"/><path class="xgrid crisp" transform="translate(378.42,0)" d="M0,100v292" style="stroke: rgb(255, 255, 255); stroke-opacity: 1; stroke-width: 1px;"/><path class="xgrid crisp" transform="translate(392.63,0)" d="M0,100v292" style="stroke: rgb(255, 255, 255); stroke-opacity: 1; stroke-width: 1px;"/><path class="xgrid crisp" transform="translate(406.84,0)" d="M0,100v292" style="stroke: rgb(255, 255, 255); stroke-opacity: 1; stroke-width: 1px;"/><path class="xgrid crisp" transform="translate(421.05,0)" d="M0,100v292" style="stroke: rgb(255, 255, 255); stroke-opacity: 1; stroke-width: 1px;"/><path class="xgrid crisp" transform="translate(435.26,0)" d="M0,100v292" style="stroke: rgb(255, 255, 255); stroke-opacity: 1; stroke-width: 1px;"/><path class="xgrid crisp" transform="translate(449.47,0)" d="M0,100v292" style="stroke: rgb(255, 255, 255); stroke-opacity: 1; stroke-width: 1px;"/><path class="xgrid crisp" transform="translate(463.68,0)" d="M0,100v292" style="stroke: rgb(255, 255, 255); stroke-opacity: 1; stroke-width: 1px;"/><path class="xgrid crisp" transform="translate(477.89,0)" d="M0,100v292" style="stroke: rgb(255, 255, 255); stroke-opacity: 1; stroke-width: 1px;"/><path class="xgrid crisp" transform="translate(492.11,0)" d="M0,100v292" style="stroke: rgb(255, 255, 255); stroke-opacity: 1; stroke-width: 1px;"/><path class="xgrid crisp" transform="translate(506.32,0)" d="M0,100v292" style="stroke: rgb(255, 255, 255); stroke-opacity: 1; stroke-width: 1px;"/><path class="xgrid crisp" transform="translate(520.53,0)" d="M0,100v292" style="stroke: rgb(255, 255, 255); stroke-opacity: 1; stroke-width: 1px;"/><path class="xgrid crisp" transform="translate(534.74,0)" d="M0,100v292" style="stroke: rgb(255, 255, 255); stroke-opacity: 1; stroke-width: 1px;"/><path class="xgrid crisp" transform="translate(548.95,0)" d="M0,100v292" style="stroke: rgb(255, 255, 255); stroke-opacity: 1; stroke-width: 1px;"/><path class="xgrid crisp" transform="translate(563.1600000000001,0)" d="M0,100v292" style="stroke: rgb(255, 255, 255); stroke-opacity: 1; stroke-width: 1px;"/><path class="xgrid crisp" transform="translate(577.37,0)" d="M0,100v292" style="stroke: rgb(255, 255, 255); stroke-opacity: 1; stroke-width: 1px;"/><path class="xgrid crisp" transform="translate(591.5799999999999,0)" d="M0,100v292" style="stroke: rgb(255, 255, 255); stroke-opacity: 1; stroke-width: 1px;"/><path class="xgrid crisp" transform="translate(605.79,0)" d="M0,100v292" style="stroke: rgb(255, 255, 255); stroke-opacity: 1; stroke-width: 1px;"/></g><g class="y"><path class="ygrid crisp" transform="translate(0,329.33000000000004)" d="M80,0h540" style="stroke: rgb(255, 255, 255); stroke-opacity: 1; stroke-width: 1px;"/><path class="ygrid crisp" transform="translate(0,275.90999999999997)" d="M80,0h540" style="stroke: rgb(255, 255, 255); stroke-opacity: 1; stroke-width: 1px;"/><path class="ygrid crisp" transform="translate(0,222.5)" d="M80,0h540" style="stroke: rgb(255, 255, 255); stroke-opacity: 1; stroke-width: 1px;"/><path class="ygrid crisp" transform="translate(0,169.07999999999998)" d="M80,0h540" style="stroke: rgb(255, 255, 255); stroke-opacity: 1; stroke-width: 1px;"/><path class="ygrid crisp" transform="translate(0,115.67)" d="M80,0h540" style="stroke: rgb(255, 255, 255); stroke-opacity: 1; stroke-width: 1px;"/></g></g><g class="zerolinelayer"><path class="yzl zl crisp" transform="translate(0,382.74)" d="M80,0h540" style="stroke: rgb(255, 255, 255); stroke-opacity: 1; stroke-width: 2px;"/></g><g class="layer-between"><g class="shapelayer"/><g class="imagelayer"/></g><path class="xlines-below"/><path class="ylines-below"/><g class="overlines-below"/><g class="xaxislayer-below"/><g class="yaxislayer-below"/><g class="overaxes-below"/><g class="overplot"><g class="xy" transform="translate(80,100)" clip-path="url(#clip9d5698xyplot)"><g class="scatterlayer mlayer"><g class="trace scatter tracee38eeb" style="stroke-miterlimit: 2; opacity: 1;"><g class="fills"/><g class="errorbars"/><g class="lines"><path class="js-line" d="M0,188.2L3.55,136.92L7.11,134.25L10.66,34.36L14.21,212.23L17.76,210.1L21.32,126.77L24.87,158.29L28.42,179.12L31.97,100.6L35.53,243.21L39.08,199.41L42.63,178.58L46.18,143.86L49.74,166.3L53.29,195.14L56.84,84.57L60.39,172.17L63.95,229.86L67.5,277.4L71.05,223.99L74.61,189.27L78.16,131.04L81.71,158.82L85.26,104.87L92.37,240.01L95.92,237.34L99.47,173.24L103.03,163.09L106.58,128.37L110.13,148.14L113.68,189.8L117.24,101.13L120.79,118.76L124.34,60L127.89,114.49L131.45,238.41L135,254.43L138.55,183.92L142.11,164.7L145.66,190.87L149.21,147.6L152.76,151.88L156.32,137.45L159.87,236.8L163.42,251.23L166.97,179.65L170.53,117.69L174.08,141.19L177.63,155.61L181.18,148.67L184.74,226.66L188.29,218.64L191.84,263.51L195.39,171.1L198.95,111.28L202.5,154.55L206.05,165.76L209.61,188.2L213.16,233.6L216.71,176.45L220.26,167.37L223.82,166.3L227.37,162.56L230.92,227.72L234.47,258.17L238.03,191.4L241.58,174.84L245.13,151.34L248.68,188.73L252.24,159.35L255.79,146.53L259.34,203.69L262.89,257.1L266.45,167.37L270,151.88L273.55,174.31L277.11,180.19L280.66,162.56L284.21,214.9L287.76,245.89L291.32,195.68L294.87,182.32L298.42,171.64L301.97,172.71L305.53,242.68L309.08,177.51L312.63,231.46L316.18,270.99L319.74,183.39L323.29,119.83L326.84,108.61L330.39,237.34L333.95,235.74L337.5,184.46L341.05,82.44L344.61,145.47L348.16,136.39L351.71,71.22L355.26,214.9L358.82,236.8L362.37,189.27L365.92,154.01L369.47,84.04L373.03,97.39L376.58,111.28L380.13,150.81L383.68,209.56L387.24,249.62L394.34,143.86L397.89,94.72L405,253.9L408.55,125.17L412.11,228.26L415.66,250.69L419.21,167.37L422.76,150.27L426.32,88.85L429.87,164.16L433.42,148.67L436.97,251.23L440.53,144.93L444.08,176.45L447.63,87.24L451.18,132.11L454.74,232.53L458.29,252.3L461.84,183.92L465.39,99.53L468.95,110.21L472.5,76.03L476.05,243.21L479.61,131.58L483.16,165.76L486.71,235.74L490.26,164.7L493.82,46.11L497.37,127.3L500.92,26.35L504.47,65.88L508.03,219.18L511.58,200.48L515.13,146.53L518.68,152.41L522.24,14.6L525.79,117.16L529.34,89.38L532.89,201.02L536.45,261.91L540,176.45" style="vector-effect: none; fill: none; stroke: rgb(0, 128, 0); stroke-opacity: 1; stroke-width: 2px; opacity: 1;"/></g><g class="points"/><g class="text"/></g></g></g></g><path class="xlines-above crisp" d="M0,0" style="fill: none;"/><path class="ylines-above crisp" d="M0,0" style="fill: none;"/><g class="overlines-above"/><g class="xaxislayer-above"><g class="xtick"><text text-anchor="start" x="0" y="405" transform="translate(80,0) rotate(90,0,399)" style="font-family: Arial; font-size: 12px; fill: rgb(42, 63, 95); fill-opacity: 1; white-space: pre; opacity: 1;">5/1/2024</text></g><g class="xtick"><text text-anchor="start" x="0" y="405" transform="translate(94.21000000000001,0) rotate(90,0,399)" style="font-family: Arial; font-size: 12px; fill: rgb(42, 63, 95); fill-opacity: 1; white-space: pre; opacity: 1;">5/13/2024</text></g><g class="xtick"><text text-anchor="start" x="0" y="405" transform="translate(108.42,0) rotate(90,0,399)" style="font-family: Arial; font-size: 12px; fill: rgb(42, 63, 95); fill-opacity: 1; white-space: pre; opacity: 1;">5/17/2024</text></g><g class="xtick"><text text-anchor="start" x="0" y="405" transform="translate(122.63,0) rotate(90,0,399)" style="font-family: Arial; font-size: 12px; fill: rgb(42, 63, 95); fill-opacity: 1; white-space: pre; opacity: 1;">5/20/2024</text></g><g class="xtick"><text text-anchor="start" x="0" y="405" transform="translate(136.84,0) rotate(90,0,399)" style="font-family: Arial; font-size: 12px; fill: rgb(42, 63, 95); fill-opacity: 1; white-space: pre; opacity: 1;">5/24/2024</text></g><g class="xtick"><text text-anchor="start" x="0" y="405" transform="translate(151.05,0) rotate(90,0,399)" style="font-family: Arial; font-size: 12px; fill: rgb(42, 63, 95); fill-opacity: 1; white-space: pre; opacity: 1;">5/28/2024</text></g><g class="xtick"><text text-anchor="start" x="0" y="405" transform="translate(165.26,0) rotate(90,0,399)" style="font-family: Arial; font-size: 12px; fill: rgb(42, 63, 95); fill-opacity: 1; white-space: pre; opacity: 1;">5/31/2024</text></g><g class="xtick"><text text-anchor="start" x="0" y="405" transform="translate(179.47,0) rotate(90,0,399)" style="font-family: Arial; font-size: 12px; fill: rgb(42, 63, 95); fill-opacity: 1; white-space: pre; opacity: 1;">5/7/2024</text></g><g class="xtick"><text text-anchor="start" x="0" y="405" transform="translate(193.68,0) rotate(90,0,399)" style="font-family: Arial; font-size: 12px; fill: rgb(42, 63, 95); fill-opacity: 1; white-space: pre; opacity: 1;">6/10/2024</text></g><g class="xtick"><text text-anchor="start" x="0" y="405" transform="translate(207.89,0) rotate(90,0,399)" style="font-family: Arial; font-size: 12px; fill: rgb(42, 63, 95); fill-opacity: 1; white-space: pre; opacity: 1;">6/14/2024</text></g><g class="xtick"><text text-anchor="start" x="0" y="405" transform="translate(222.11,0) rotate(90,0,399)" style="font-family: Arial; font-size: 12px; fill: rgb(42, 63, 95); fill-opacity: 1; white-space: pre; opacity: 1;">6/18/2024</text></g><g class="xtick"><text text-anchor="start" x="0" y="405" transform="translate(236.32,0) rotate(90,0,399)" style="font-family: Arial; font-size: 12px; fill: rgb(42, 63, 95); fill-opacity: 1; white-space: pre; opacity: 1;">6/21/2024</text></g><g class="xtick"><text text-anchor="start" x="0" y="405" transform="translate(250.53,0) rotate(90,0,399)" style="font-family: Arial; font-size: 12px; fill: rgb(42, 63, 95); fill-opacity: 1; white-space: pre; opacity: 1;">6/25/2024</text></g><g class="xtick"><text text-anchor="start" x="0" y="405" transform="translate(264.74,0) rotate(90,0,399)" style="font-family: Arial; font-size: 12px; fill: rgb(42, 63, 95); fill-opacity: 1; white-space: pre; opacity: 1;">6/29/2024</text></g><g class="xtick"><text text-anchor="start" x="0" y="405" transform="translate(278.95,0) rotate(90,0,399)" style="font-family: Arial; font-size: 12px; fill: rgb(42, 63, 95); fill-opacity: 1; white-space: pre; opacity: 1;">6/5/2024</text></g><g class="xtick"><text text-anchor="start" x="0" y="405" transform="translate(293.15999999999997,0) rotate(90,0,399)" style="font-family: Arial; font-size: 12px; fill: rgb(42, 63, 95); fill-opacity: 1; white-space: pre; opacity: 1;">6/9/2024</text></g><g class="xtick"><text text-anchor="start" x="0" y="405" transform="translate(307.37,0) rotate(90,0,399)" style="font-family: Arial; font-size: 12px; fill: rgb(42, 63, 95); fill-opacity: 1; white-space: pre; opacity: 1;">7/12/2024</text></g><g class="xtick"><text text-anchor="start" x="0" y="405" transform="translate(321.58000000000004,0) rotate(90,0,399)" style="font-family: Arial; font-size: 12px; fill: rgb(42, 63, 95); fill-opacity: 1; white-space: pre; opacity: 1;">7/16/2024</text></g><g class="xtick"><text text-anchor="start" x="0" y="405" transform="translate(335.78999999999996,0) rotate(90,0,399)" style="font-family: Arial; font-size: 12px; fill: rgb(42, 63, 95); fill-opacity: 1; white-space: pre; opacity: 1;">7/2/2024</text></g><g class="xtick"><text text-anchor="start" x="0" y="405" transform="translate(350,0) rotate(90,0,399)" style="font-family: Arial; font-size: 12px; fill: rgb(42, 63, 95); fill-opacity: 1; white-space: pre; opacity: 1;">7/23/2024</text></g><g class="xtick"><text text-anchor="start" x="0" y="405" transform="translate(364.21,0) rotate(90,0,399)" style="font-family: Arial; font-size: 12px; fill: rgb(42, 63, 95); fill-opacity: 1; white-space: pre; opacity: 1;">7/27/2024</text></g><g class="xtick"><text text-anchor="start" x="0" y="405" transform="translate(378.42,0) rotate(90,0,399)" style="font-family: Arial; font-size: 12px; fill: rgb(42, 63, 95); fill-opacity: 1; white-space: pre; opacity: 1;">7/30/2024</text></g><g class="xtick"><text text-anchor="start" x="0" y="405" transform="translate(392.63,0) rotate(90,0,399)" style="font-family: Arial; font-size: 12px; fill: rgb(42, 63, 95); fill-opacity: 1; white-space: pre; opacity: 1;">7/6/2024</text></g><g class="xtick"><text text-anchor="start" x="0" y="405" transform="translate(406.84,0) rotate(90,0,399)" style="font-family: Arial; font-size: 12px; fill: rgb(42, 63, 95); fill-opacity: 1; white-space: pre; opacity: 1;">8/1/2024</text></g><g class="xtick"><text text-anchor="start" x="0" y="405" transform="translate(421.05,0) rotate(90,0,399)" style="font-family: Arial; font-size: 12px; fill: rgb(42, 63, 95); fill-opacity: 1; white-space: pre; opacity: 1;">8/13/2024</text></g><g class="xtick"><text text-anchor="start" x="0" y="405" transform="translate(435.26,0) rotate(90,0,399)" style="font-family: Arial; font-size: 12px; fill: rgb(42, 63, 95); fill-opacity: 1; white-space: pre; opacity: 1;">8/17/2024</text></g><g class="xtick"><text text-anchor="start" x="0" y="405" transform="translate(449.47,0) rotate(90,0,399)" style="font-family: Arial; font-size: 12px; fill: rgb(42, 63, 95); fill-opacity: 1; white-space: pre; opacity: 1;">8/20/2024</text></g><g class="xtick"><text text-anchor="start" x="0" y="405" transform="translate(463.68,0) rotate(90,0,399)" style="font-family: Arial; font-size: 12px; fill: rgb(42, 63, 95); fill-opacity: 1; white-space: pre; opacity: 1;">8/24/2024</text></g><g class="xtick"><text text-anchor="start" x="0" y="405" transform="translate(477.89,0) rotate(90,0,399)" style="font-family: Arial; font-size: 12px; fill: rgb(42, 63, 95); fill-opacity: 1; white-space: pre; opacity: 1;">8/28/2024</text></g><g class="xtick"><text text-anchor="start" x="0" y="405" transform="translate(492.11,0) rotate(90,0,399)" style="font-family: Arial; font-size: 12px; fill: rgb(42, 63, 95); fill-opacity: 1; white-space: pre; opacity: 1;">8/31/2024</text></g><g class="xtick"><text text-anchor="start" x="0" y="405" transform="translate(506.32,0) rotate(90,0,399)" style="font-family: Arial; font-size: 12px; fill: rgb(42, 63, 95); fill-opacity: 1; white-space: pre; opacity: 1;">8/7/2024</text></g><g class="xtick"><text text-anchor="start" x="0" y="405" transform="translate(520.53,0) rotate(90,0,399)" style="font-family: Arial; font-size: 12px; fill: rgb(42, 63, 95); fill-opacity: 1; white-space: pre; opacity: 1;">9/10/2024</text></g><g class="xtick"><text text-anchor="start" x="0" y="405" transform="translate(534.74,0) rotate(90,0,399)" style="font-family: Arial; font-size: 12px; fill: rgb(42, 63, 95); fill-opacity: 1; white-space: pre; opacity: 1;">9/14/2024</text></g><g class="xtick"><text text-anchor="start" x="0" y="405" transform="translate(548.95,0) rotate(90,0,399)" style="font-family: Arial; font-size: 12px; fill: rgb(42, 63, 95); fill-opacity: 1; white-space: pre; opacity: 1;">9/18/2024</text></g><g class="xtick"><text text-anchor="start" x="0" y="405" transform="translate(563.1600000000001,0) rotate(90,0,399)" style="font-family: Arial; font-size: 12px; fill: rgb(42, 63, 95); fill-opacity: 1; white-space: pre; opacity: 1;">9/21/2024</text></g><g class="xtick"><text text-anchor="start" x="0" y="405" transform="translate(577.37,0) rotate(90,0,399)" style="font-family: Arial; font-size: 12px; fill: rgb(42, 63, 95); fill-opacity: 1; white-space: pre; opacity: 1;">9/25/2024</text></g><g class="xtick"><text text-anchor="start" x="0" y="405" transform="translate(591.5799999999999,0) rotate(90,0,399)" style="font-family: Arial; font-size: 12px; fill: rgb(42, 63, 95); fill-opacity: 1; white-space: pre; opacity: 1;">9/29/2024</text></g><g class="xtick"><text text-anchor="start" x="0" y="405" transform="translate(605.79,0) rotate(90,0,399)" style="font-family: Arial; font-size: 12px; fill: rgb(42, 63, 95); fill-opacity: 1; white-space: pre; opacity: 1;">9/5/2024</text></g><g class="xtick"><text text-anchor="start" x="0" y="405" transform="translate(620,0) rotate(90,0,399)" style="font-family: Arial; font-size: 12px; fill: rgb(42, 63, 95); fill-opacity: 1; white-space: pre; opacity: 1;">9/9/2024</text></g></g><g class="yaxislayer-above"><g class="ytick"><text text-anchor="end" x="79" y="4.199999999999999" transform="translate(0,382.74)" style="font-family: Arial; font-size: 12px; fill: rgb(42, 63, 95); fill-opacity: 1; white-space: pre; opacity: 1;">0</text></g><g class="ytick"><text text-anchor="end" x="79" y="4.199999999999999" style="font-family: Arial; font-size: 12px; fill: rgb(42, 63, 95); fill-opacity: 1; white-space: pre; opacity: 1;" transform="translate(0,329.33000000000004)">100</text></g><g class="ytick"><text text-anchor="end" x="79" y="4.199999999999999" style="font-family: Arial; font-size: 12px; fill: rgb(42, 63, 95); fill-opacity: 1; white-space: pre; opacity: 1;" transform="translate(0,275.90999999999997)">200</text></g><g class="ytick"><text text-anchor="end" x="79" y="4.199999999999999" style="font-family: Arial; font-size: 12px; fill: rgb(42, 63, 95); fill-opacity: 1; white-space: pre; opacity: 1;" transform="translate(0,222.5)">300</text></g><g class="ytick"><text text-anchor="end" x="79" y="4.199999999999999" style="font-family: Arial; font-size: 12px; fill: rgb(42, 63, 95); fill-opacity: 1; white-space: pre; opacity: 1;" transform="translate(0,169.07999999999998)">400</text></g><g class="ytick"><text text-anchor="end" x="79" y="4.199999999999999" style="font-family: Arial; font-size: 12px; fill: rgb(42, 63, 95); fill-opacity: 1; white-space: pre; opacity: 1;" transform="translate(0,115.67)">500</text></g></g><g class="overaxes-above"/></g></g><g class="polarlayer"/><g class="smithlayer"/><g class="ternarylayer"/><g class="geolayer"/><g class="funnelarealayer"/><g class="pielayer"/><g class="iciclelayer"/><g class="treemaplayer"/><g class="sunburstlayer"/><g class="glimages"/><defs id="topdefs-9d5698"><g class="clips"/></defs><g class="layer-above"><g class="imagelayer"/><g class="shapelayer"/></g><g class="infolayer"><g class="g-gtitle"><text class="gtitle" x="35" y="50" text-anchor="start" dy="0em" style="opacity: 1; font-family: Arial; font-size: 18px; fill: rgb(42, 63, 95); fill-opacity: 1; white-space: pre;">Job Posting Trends Over Time</text></g><g class="g-xtitle"><text class="xtitle" x="350" y="487.3" text-anchor="middle" style="opacity: 1; font-family: Arial; font-size: 14px; fill: rgb(42, 63, 95); fill-opacity: 1; white-space: pre;">POSTED</text></g><g class="g-ytitle"><text class="ytitle" transform="rotate(-90,35.6,246)" x="35.6" y="246" text-anchor="middle" style="opacity: 1; font-family: Arial; font-size: 14px; fill: rgb(42, 63, 95); fill-opacity: 1; white-space: pre;">count</text></g></g></svg>